#!OML:ASF F:\VICON\USERDATA\INSTALL\rory3\rory3.ASF
:FULLY-SPECIFIED
:DEGREES
554
root 1.28918 16.9184 10.0893 190.913 -28.2546 -528.505
lowerback -6.0628 7.97591 4.96956
upperback -9.03778 9.88565 0.313369
thorax -5.30781 4.35115 -2.16618
lowerneck -6.84046 15.4383 8.45837
upperneck 27.7858 20.4502 -3.48926
head 11.4148 9.40414 -0.101228
rclavicle 7.86442e-014 7.95139e-016
rhumerus 156.5 -268.565 -266.018
rradius 91.853
rwrist -23.9419
rhand 27.3205 -1.22654
rfingers 7.12502
rthumb 51.2827 -21.7488
lclavicle 7.86442e-014 7.95139e-016
lhumerus 61.2836 -80.9037 -2.17057
lradius 83.7026
lwrist 43.9065
lhand 20.0636 24.6
lfingers 7.12502
lthumb 44.5944 48.2575
rfemur -38.4662 7.00799 383.289
rtibia 47.1201
rfoot 173.99 162.578
rtoes 18.4015
lfemur -34.6808 -13.8818 -1.53564
ltibia 48.0484
lfoot -199.15 -175.893
ltoes -48.3866
555
root 1.19907 16.9075 10.2135 191.323 -22.9705 -528.678
lowerback -5.60739 7.86235 5.04968
upperback -8.99654 9.74111 0.547385
thorax -5.55408 4.25695 -2.03348
lowerneck -7.6248 15.1784 7.93137
upperneck 28.0147 19.977 -3.09825
head 11.5078 9.13103 0.0919327
rclavicle 3.35946e-014 2.38542e-015
rhumerus 110.621 -271.373 -311.911
rradius 95.2902
rwrist -25.581
rhand 28.5217 -0.587395
rfingers 7.12502
rthumb 52.3731 -20.4688
lclavicle 3.35946e-014 2.38542e-015
lhumerus 53.7415 -81.1277 3.51881
lradius 85.9936
lwrist 46.9583
lhand 20.6973 23.924
lfingers 7.12502
lthumb 45.1841 47.3507
rfemur -39.2011 6.64193 383.28
rtibia 46.6284
rfoot 175.814 164.303
rtoes 14.1254
lfemur -32.8789 -13.5488 -2.40149
ltibia 47.6443
lfoot -200.604 -174.611
ltoes -48.2762
556
root 1.10838 16.8957 10.3283 191.776 -17.639 -528.672
lowerback -5.35413 7.81654 5.10124
upperback -8.99971 9.66026 0.827219
thorax -5.74424 4.19182 -1.8103
lowerneck -9.05906 14.7942 7.04108
upperneck 28.9679 19.2559 -2.23246
head 11.9027 8.71246 0.534206
rclavicle -7.24322e-014 -2.78299e-014
rhumerus 97.6393 -272.488 -325.49
rradius 97.1979
rwrist -26.6105
rhand 32.7446 0.956229
rfingers 7.12502
rthumb 56.1561 -16.3118
lclavicle -7.24322e-014 -2.78299e-014
lhumerus 45.0293 -81.2888 10.436
lradius 88.2319
lwrist 50.1419
lhand 21.376 23.5263
lfingers 7.12502
lthumb 45.8147 46.6976
rfemur -40.0886 6.38781 383.423
rtibia 46.1895
rfoot 176.773 165.971
rtoes 15.3365
lfemur -31.1961 -12.9159 -3.17078
ltibia 47.1113
lfoot -202.163 -173.886
ltoes -48.1556
557
root 1.00558 16.8712 10.4422 192.613 -12.5717 -529.268
lowerback -5.47386 7.79205 4.67757
upperback -8.98365 9.58232 0.81233
thorax -5.72589 4.16018 -1.58725
lowerneck -10.4675 14.2823 6.33777
upperneck 29.8309 18.3873 -1.59064
head 12.3218 8.22812 0.85215
rclavicle -1.86361e-015 -1.59028e-014
rhumerus 117.926 -275.448 -304.621
rradius 101.092
rwrist -27.3736
rhand 30.1238 0.399513
rfingers 7.12502
rthumb 53.8182 -18.5607
lclavicle -1.86361e-015 -1.59028e-014
lhumerus 40.4515 -81.1635 13.63
lradius 90.2711
lwrist 53.5574
lhand 21.5787 23.0975
lfingers 7.12502
lthumb 46.0028 46.1908
rfemur -41.2743 5.52776 382.979
rtibia 45.9033
rfoot 176.845 167.097
rtoes 18.4822
lfemur -29.6645 -12.5332 -4.68706
ltibia 46.4483
lfoot -202.654 -172.216
ltoes -47.1275
558
root 0.901599 16.8406 10.5624 193.585 -7.84816 -529.907
lowerback -5.37746 7.71501 4.30698
upperback -9.19305 9.43198 0.614204
thorax -6.03508 4.06138 -1.62422
lowerneck -11.5454 13.6639 5.74651
upperneck 30.3035 17.3883 -1.08986
head 12.5612 7.71258 1.04513
rclavicle -1.05356e-013 -4.25399e-014
rhumerus 110.127 -276.716 -312.589
rradius 103.484
rwrist -31.4784
rhand 32.1262 -1.17871
rfingers 7.12502
rthumb 55.6076 -18.8686
lclavicle -1.05356e-013 -4.25399e-014
lhumerus 36.4848 -81.1369 16.1205
lradius 92.2126
lwrist 56.892
lhand 20.7585 22.2254
lfingers 7.12502
lthumb 45.241 45.6294
rfemur -42.7911 4.61101 382.439
rtibia 45.7274
rfoot 177.485 168.357
rtoes 20.1483
lfemur -28.5632 -12.3467 -6.23203
ltibia 45.7766
lfoot -203.945 -171.033
ltoes -47.2725
